<?xml version="1.0" encoding="iso-8859-1"?>
<svg version="1.1" id="Capa_1" xmlns="http://www.w3.org/2000/svg" xmlns:xlink="http://www.w3.org/1999/xlink" x="0px" y="0px"
	 viewBox="0 0 512.186 512.186" style="enable-background:new 0 0 512.186 512.186;" xml:space="preserve">
<g transform="translate(-1)">
	<g transform="translate(1 1)">
		<path style="fill:#1566C0;" d="M483.77,143.812l-13.824,13.739c-6.827,6.841-14.096,13.227-21.76,19.115l17.067,17.067
			c-17.458,13.469-36.848,24.229-57.515,31.915l-64.341,24.149L100.624,492.569c-13.348,13.312-34.951,13.312-48.299,0
			l-33.792-33.792c-13.312-13.348-13.312-34.951,0-48.299l242.773-242.773l24.149-64.341c11.132-29.777,28.535-56.812,51.029-79.275
			l13.739-13.824c3.81-3.754,9.929-3.754,13.739,0L483.77,130.073C487.525,133.883,487.525,140.002,483.77,143.812z"/>
		<path style="fill:#2296F3;" d="M483.77,143.812l-13.824,13.739c-6.827,6.841-14.096,13.227-21.76,19.115
			c-17.458,13.469-36.848,24.229-57.515,31.915l-64.341,24.149L83.557,475.502c-13.348,13.312-34.951,13.312-48.299,0
			l-16.725-16.725c-13.312-13.348-13.312-34.951,0-48.299l242.773-242.773l24.149-64.341c11.132-29.777,28.535-56.812,51.029-79.275
			l13.739-13.824c3.81-3.754,9.929-3.754,13.739,0L483.77,130.073C487.525,133.883,487.525,140.002,483.77,143.812z"/>
		<path style="fill:#CFD8DC;" d="M233.914,304.58l-28.16,28.16c-3.354,3.328-8.764,3.328-12.117,0l-15.275-15.275
			c-3.328-3.354-3.328-8.764,0-12.117l28.16-28.16L233.914,304.58z"/>
		<path style="fill:#F5F5F5;" d="M255.248,283.246l-21.333,21.333l-27.392-27.392l21.333-21.333c3.354-3.328,8.764-3.328,12.117,0
			l15.275,15.275C258.576,274.483,258.576,279.893,255.248,283.246z"/>
		<path style="fill:#283593;" d="M465.253,193.732c-17.458,13.469-36.848,24.229-57.515,31.915l-64.341,24.149l-17.067-17.067
			l64.341-24.149c20.667-7.686,40.057-18.445,57.515-31.915L465.253,193.732z"/>
		<path style="fill:#3F51B5;" d="M448.186,176.665c-17.458,13.469-36.848,24.229-57.515,31.915l-64.341,24.149l-65.024-65.024
			l24.149-64.341c7.686-20.667,18.445-40.057,31.915-57.515L448.186,176.665z"/>
		<path style="fill:#1566C0;" d="M500.837,160.878l-13.824,13.739c-6.827,6.841-14.096,13.227-21.76,19.115l-17.067-17.067
			c7.664-5.888,14.933-12.273,21.76-19.115l13.824-13.739c3.755-3.81,3.755-9.929,0-13.739l17.067,17.067
			C504.592,150.949,504.592,157.068,500.837,160.878z"/>
		<path style="fill:#2296F3;" d="M483.77,143.812l-13.824,13.739c-6.827,6.841-14.096,13.227-21.76,19.115L317.37,45.849
			c5.888-7.664,12.274-14.933,19.115-21.76l13.739-13.824c3.81-3.754,9.929-3.754,13.739,0L483.77,130.073
			C487.525,133.883,487.525,140.002,483.77,143.812z"/>
	</g>
	<g>
		<path d="M246.978,250.82c-6.667-6.663-17.471-6.663-24.137,0l-49.525,49.525c-3.201,3.2-5,7.54-5,12.067s1.799,8.867,5,12.067
			l15.308,15.308c6.668,6.656,17.466,6.656,24.133,0l28.175-28.175l0.013-0.009l0.009-0.013l21.329-21.329
			c6.654-6.67,6.654-17.467,0-24.137L246.978,250.82z M200.699,327.728l-15.317-15.317l22.152-22.149l15.313,15.311L200.699,327.728
			z M234.911,293.504l-15.31-15.309l15.31-15.309l15.304,15.309L234.911,293.504z"/>
		<path d="M370.974,5.249c-7.203-6.888-18.551-6.888-25.754,0l-13.808,13.812c-23.37,23.301-41.443,51.367-52.987,82.283
			l-23.482,62.623L13.478,405.432c-16.637,16.672-16.637,43.666,0,60.338l33.854,33.854c16.671,16.639,43.666,16.639,60.338,0
			l241.471-241.467l62.617-23.479c30.917-11.544,58.982-29.617,82.283-52.987l13.812-13.808c7.111-7.112,7.111-18.642,0-25.754
			L370.974,5.249z M95.603,487.557c-10.005,9.979-26.199,9.979-36.204,0l-33.854-33.854c-9.979-10.005-9.979-26.199,0-36.204
			l236.742-236.742l70.059,70.063L95.603,487.557z M405.766,218.695l-59.21,22.202l-74.349-74.353l22.201-59.208
			c6.298-16.793,14.69-32.724,24.978-47.415l133.797,133.794C438.49,204.004,422.559,212.396,405.766,218.695z M495.786,155.816
			l-13.813,13.808c-4.83,4.83-9.881,9.357-15.086,13.665L329.812,46.216c4.308-5.205,8.836-10.257,13.666-15.088l13.808-13.812
			c0.448-0.446,1.173-0.446,1.621,0l136.879,136.879C496.232,154.643,496.232,155.367,495.786,155.816z"/>
		<path d="M139.907,361.128l-20.533,20.533c-2.155,2.156-2.997,5.297-2.208,8.242s3.089,5.244,6.033,6.033
			c2.944,0.789,6.086-0.053,8.242-2.208l20.533-20.533c3.332-3.332,3.332-8.734,0-12.067
			C148.642,357.796,143.239,357.796,139.907,361.128z"/>
		<path d="M104.099,409.003c-0.83-0.754-1.782-1.36-2.817-1.792c-2.078-0.854-4.409-0.854-6.487,0
			c-1.045,0.411-2.001,1.02-2.817,1.792c-0.752,0.831-1.358,1.783-1.792,2.817c-0.438,1.025-0.67,2.127-0.683,3.242
			c-0.081,3.475,2.04,6.622,5.292,7.85c2.067,0.911,4.421,0.911,6.487,0c1.034-0.434,1.986-1.04,2.817-1.792
			c1.57-1.628,2.455-3.797,2.471-6.059c-0.012-1.114-0.243-2.216-0.679-3.241C105.456,410.786,104.851,409.834,104.099,409.003z"/>
	</g>
</g>
<g>
</g>
<g>
</g>
<g>
</g>
<g>
</g>
<g>
</g>
<g>
</g>
<g>
</g>
<g>
</g>
<g>
</g>
<g>
</g>
<g>
</g>
<g>
</g>
<g>
</g>
<g>
</g>
<g>
</g>
</svg>
